<svg width="160" height="31" viewBox="0 0 160 31" fill="none" xmlns="http://www.w3.org/2000/svg">
<g clip-path="url(#clip0_165_53)">
<g clip-path="url(#clip1_165_53)">
<g clip-path="url(#clip2_165_53)">
<g clip-path="url(#clip3_165_53)">
<g clip-path="url(#clip4_165_53)">
<path d="M8.434 0H0.16626V30.2478H8.434V0Z" fill="black"/>
<path d="M18.5166 0H10.2489V30.2478H18.5166V0Z" fill="black" fill-opacity="0.75"/>
<path d="M28.5992 0H20.3314V30.2478H28.5992V0Z" fill="black" fill-opacity="0.5"/>
</g>
<g clip-path="url(#clip5_165_53)">
<g clip-path="url(#clip6_165_53)">
<g clip-path="url(#clip7_165_53)">
<g clip-path="url(#clip8_165_53)">
<path d="M47.213 8.87147H45.2595C45.1617 8.04607 44.7658 7.40561 44.0719 6.95011C43.3749 6.49461 42.5219 6.26686 41.5131 6.26686C40.7764 6.26686 40.1329 6.38609 39.5826 6.62454C39.0293 6.86299 38.5997 7.19162 38.294 7.61044C37.9883 8.0262 37.8355 8.50004 37.8355 9.03197C37.8355 9.4783 37.9425 9.86043 38.1565 10.1784C38.3705 10.4963 38.6456 10.7592 38.9819 10.9671C39.3182 11.175 39.6712 11.3462 40.0411 11.4807C40.411 11.6121 40.7504 11.7191 41.0591 11.8017L42.7512 12.2556C43.1853 12.3718 43.6699 12.5292 44.2049 12.7279C44.7398 12.9297 45.2534 13.2033 45.7456 13.5488C46.2347 13.8942 46.6398 14.3344 46.9608 14.8694C47.2818 15.4075 47.4423 16.0678 47.4423 16.8504C47.4423 17.7522 47.2069 18.5654 46.7361 19.2899C46.2684 20.0175 45.5851 20.5968 44.6863 21.0279C43.7876 21.4558 42.6977 21.6698 41.4168 21.6698C40.2215 21.6698 39.1882 21.4772 38.317 21.0921C37.4457 20.7069 36.7625 20.1688 36.2672 19.4779C35.7689 18.7901 35.4877 17.9891 35.4235 17.0751H37.5099C37.5619 17.7048 37.7743 18.2261 38.1473 18.6388C38.5203 19.0484 38.9926 19.3511 39.5642 19.5467C40.1359 19.7454 40.7534 19.8448 41.4168 19.8448C42.1872 19.8448 42.8796 19.7194 43.4941 19.4688C44.1055 19.215 44.5916 18.8619 44.9523 18.4095C45.31 17.957 45.4888 17.4266 45.4888 16.8183C45.4888 16.265 45.3329 15.814 45.0211 15.4655C44.7123 15.117 44.3057 14.8343 43.8013 14.6172C43.2969 14.4002 42.7512 14.2106 42.1643 14.0486L40.1145 13.4616C38.8122 13.0887 37.7805 12.5537 37.0192 11.8567C36.2611 11.1627 35.882 10.2548 35.882 9.13285C35.882 8.19739 36.1358 7.38116 36.6432 6.68415C37.1507 5.98714 37.834 5.44451 38.693 5.05627C39.552 4.66802 40.5135 4.4739 41.5773 4.4739C42.6534 4.4739 43.6087 4.66496 44.4433 5.04709C45.2809 5.42923 45.9458 5.95198 46.438 6.61537C46.9272 7.27875 47.1855 8.03078 47.213 8.87147ZM52.4222 13.8514V21.3764H50.5009V4.70318H52.4222V10.8249H52.5873C52.8808 10.1799 53.321 9.66478 53.908 9.27959C54.498 8.89746 55.2836 8.70639 56.2649 8.70639C57.1179 8.70639 57.8653 8.87606 58.5073 9.21539C59.1462 9.55472 59.643 10.0729 59.9976 10.7699C60.3553 11.4669 60.5341 12.3535 60.5341 13.4295V21.3764H58.6128V13.5579C58.6128 12.5675 58.356 11.7986 57.8424 11.2514C57.3288 10.7072 56.6196 10.4352 55.7147 10.4352C55.0849 10.4352 54.5209 10.5681 54.0226 10.8341C53.5273 11.1001 53.136 11.4883 52.8487 11.9988C52.5644 12.5063 52.4222 13.1238 52.4222 13.8514ZM69.1275 21.6377C67.9994 21.6377 67.0105 21.3687 66.1606 20.8307C65.3108 20.2926 64.6489 19.5406 64.1751 18.5746C63.7012 17.6085 63.4643 16.4805 63.4643 15.1904C63.4643 13.885 63.7012 12.7478 64.1751 11.7787C64.6489 10.8066 65.3108 10.0515 66.1606 9.51345C67.0105 8.97541 67.9994 8.70639 69.1275 8.70639C70.2586 8.70639 71.2491 8.97541 72.099 9.51345C72.9488 10.0515 73.6107 10.8066 74.0845 11.7787C74.5584 12.7478 74.7953 13.885 74.7953 15.1904C74.7953 16.4805 74.5584 17.6085 74.0845 18.5746C73.6107 19.5406 72.9488 20.2926 72.099 20.8307C71.2491 21.3687 70.2586 21.6377 69.1275 21.6377ZM69.1275 19.909C69.9865 19.909 70.6927 19.6904 71.246 19.2532C71.7994 18.813 72.209 18.2337 72.475 17.5153C72.7409 16.7999 72.8739 16.025 72.8739 15.1904C72.8739 14.3528 72.7409 13.5732 72.475 12.8518C72.209 12.1303 71.7994 11.5464 71.246 11.1001C70.6927 10.6568 69.9865 10.4352 69.1275 10.4352C68.2715 10.4352 67.5669 10.6568 67.0136 11.1001C66.4602 11.5464 66.0506 12.1303 65.7846 12.8518C65.5187 13.5732 65.3857 14.3528 65.3857 15.1904C65.3857 16.025 65.5187 16.7999 65.7846 17.5153C66.0506 18.2337 66.4602 18.813 67.0136 19.2532C67.5669 19.6904 68.2715 19.909 69.1275 19.909ZM79.6468 26.0674H77.7255V8.87147H79.5826V10.857H79.8119C79.9525 10.64 80.1482 10.3618 80.3989 10.0225C80.6526 9.68312 81.0164 9.37894 81.4902 9.10992C81.9671 8.8409 82.6122 8.70639 83.4254 8.70639C84.48 8.70639 85.4079 8.9693 86.2088 9.49511C87.0128 10.024 87.6395 10.7714 88.0889 11.7375C88.5413 12.7035 88.7676 13.8422 88.7676 15.1537C88.7676 16.4805 88.5413 17.6284 88.0889 18.5975C87.6395 19.5666 87.0159 20.3156 86.218 20.8444C85.4201 21.3733 84.4999 21.6377 83.4575 21.6377C82.6534 21.6377 82.0099 21.5032 81.5269 21.2342C81.0439 20.9652 80.6725 20.658 80.4126 20.3125C80.1528 19.9701 79.9525 19.6843 79.8119 19.455H79.6468V26.0674ZM79.6147 15.1216C79.6147 16.0663 79.7538 16.8993 80.032 17.6208C80.3072 18.3392 80.7107 18.9001 81.2426 19.3037C81.7745 19.7072 82.4257 19.909 83.1961 19.909C84.0001 19.909 84.6726 19.6965 85.2137 19.2716C85.7518 18.8466 86.1584 18.2719 86.4335 17.5474C86.7086 16.8229 86.8462 16.0143 86.8462 15.1216C86.8462 14.2442 86.7117 13.4509 86.4427 12.7417C86.1736 12.0325 85.7686 11.47 85.2275 11.0542C84.6894 10.6415 84.0123 10.4352 83.1961 10.4352C82.4165 10.4352 81.7608 10.6308 81.2289 11.0221C80.6969 11.4165 80.2949 11.9652 80.0229 12.6683C79.7508 13.3715 79.6147 14.1892 79.6147 15.1216ZM93.9768 21.3764H91.9591V4.70318H101.956V6.49155H93.9768V12.1272H101.208V13.9202H93.9768V21.3764ZM113.03 16.2634V8.87147H114.951V21.3764H113.03V19.2578H112.897C112.603 19.8937 112.148 20.4333 111.53 20.8765C110.91 21.3198 110.127 21.5414 109.183 21.5414C108.403 21.5414 107.709 21.3687 107.101 21.0233C106.492 20.6778 106.014 20.1566 105.665 19.4596C105.32 18.7626 105.147 17.8821 105.147 16.8183V8.87147H107.069V16.6853C107.069 17.5994 107.325 18.3269 107.839 18.868C108.35 19.4122 109.004 19.6843 109.802 19.6843C110.282 19.6843 110.769 19.562 111.264 19.3174C111.763 19.0729 112.182 18.6984 112.521 18.194C112.86 17.6895 113.03 17.046 113.03 16.2634ZM127.323 11.6733L125.599 12.1593C125.489 11.872 125.33 11.5907 125.122 11.3156C124.914 11.0435 124.63 10.8173 124.269 10.6369C123.911 10.4566 123.453 10.3664 122.893 10.3664C122.129 10.3664 121.493 10.5422 120.986 10.8937C120.478 11.2422 120.225 11.6855 120.225 12.2235C120.225 12.7035 120.399 13.081 120.747 13.3562C121.093 13.6344 121.635 13.8652 122.375 14.0486L124.228 14.5026C125.347 14.7746 126.181 15.1889 126.732 15.7453C127.279 16.3016 127.552 17.017 127.552 17.8913C127.552 18.6067 127.348 19.2471 126.938 19.8127C126.528 20.3782 125.957 20.823 125.223 21.1471C124.489 21.4742 123.638 21.6377 122.669 21.6377C121.391 21.6377 120.335 21.3611 119.5 20.8077C118.663 20.2544 118.134 19.4458 117.914 18.382L119.734 17.9234C119.908 18.596 120.238 19.1004 120.724 19.4367C121.211 19.7729 121.846 19.9411 122.632 19.9411C123.528 19.9411 124.242 19.75 124.774 19.3679C125.302 18.9857 125.567 18.5257 125.567 17.9876C125.567 17.5535 125.414 17.1897 125.108 16.8962C124.806 16.5997 124.339 16.3781 123.71 16.2313L121.623 15.7407C120.48 15.4717 119.641 15.0498 119.106 14.4751C118.571 13.9034 118.303 13.1865 118.303 12.3244C118.303 11.6182 118.502 10.9931 118.899 10.4489C119.3 9.90781 119.846 9.48135 120.536 9.16953C121.23 8.86077 122.016 8.70639 122.893 8.70639C124.132 8.70639 125.105 8.97847 125.814 9.52262C126.524 10.0637 127.027 10.7806 127.323 11.6733ZM132.372 21.3764H130.451V8.87147H132.372V21.3764ZM131.427 6.78503C131.051 6.78503 130.729 6.65816 130.46 6.40443C130.194 6.14763 130.061 5.8404 130.061 5.48273C130.061 5.12505 130.194 4.81782 130.46 4.56102C130.729 4.30729 131.051 4.18042 131.427 4.18042C131.8 4.18042 132.121 4.30729 132.39 4.56102C132.659 4.81782 132.794 5.12505 132.794 5.48273C132.794 5.8404 132.659 6.14763 132.39 6.40443C132.121 6.65816 131.8 6.78503 131.427 6.78503ZM140.97 21.6377C139.839 21.6377 138.848 21.3687 137.998 20.8307C137.149 20.2926 136.487 19.5406 136.013 18.5746C135.539 17.6085 135.302 16.4805 135.302 15.1904C135.302 13.885 135.539 12.7478 136.013 11.7787C136.487 10.8066 137.149 10.0515 137.998 9.51345C138.848 8.97541 139.839 8.70639 140.97 8.70639C142.098 8.70639 143.087 8.97541 143.937 9.51345C144.787 10.0515 145.448 10.8066 145.922 11.7787C146.396 12.7478 146.633 13.885 146.633 15.1904C146.633 16.4805 146.396 17.6085 145.922 18.5746C145.448 19.5406 144.787 20.2926 143.937 20.8307C143.087 21.3687 142.098 21.6377 140.97 21.6377ZM140.97 19.909C141.826 19.909 142.53 19.6904 143.084 19.2532C143.637 18.813 144.047 18.2337 144.313 17.5153C144.579 16.7999 144.712 16.025 144.712 15.1904C144.712 14.3528 144.579 13.5732 144.313 12.8518C144.047 12.1303 143.637 11.5464 143.084 11.1001C142.53 10.6568 141.826 10.4352 140.97 10.4352C140.111 10.4352 139.405 10.6568 138.851 11.1001C138.298 11.5464 137.888 12.1303 137.622 12.8518C137.356 13.5732 137.223 14.3528 137.223 15.1904C137.223 16.025 137.356 16.7999 137.622 17.5153C137.888 18.2337 138.298 18.813 138.851 19.2532C139.405 19.6904 140.111 19.909 140.97 19.909ZM151.485 13.8514V21.3764H149.563V8.87147H151.42V10.8249H151.585C151.879 10.1891 152.324 9.67701 152.92 9.28876C153.516 8.90051 154.286 8.70639 155.231 8.70639C156.078 8.70639 156.819 8.87911 157.455 9.22456C158.091 9.57001 158.585 10.0912 158.936 10.7882C159.288 11.4853 159.464 12.3657 159.464 13.4295V21.3764H157.542V13.5579C157.542 12.5766 157.287 11.8108 156.776 11.2606C156.269 10.7103 155.569 10.4352 154.676 10.4352C154.065 10.4352 153.519 10.5681 153.039 10.8341C152.556 11.1001 152.177 11.4883 151.902 11.9988C151.624 12.5063 151.485 13.1238 151.485 13.8514Z" fill="#89939E"/>
</g>
</g>
</g>
</g>
</g>
</g>
</g>
</g>
<defs>
<clipPath id="clip0_165_53">
<rect width="160" height="30.24" fill="white"/>
</clipPath>
<clipPath id="clip1_165_53">
<rect width="160" height="30.24" fill="white" transform="translate(-0.0969238 0.00390625)"/>
</clipPath>
<clipPath id="clip2_165_53">
<rect width="159.474" height="30.2478" fill="white" transform="translate(0.16626)"/>
</clipPath>
<clipPath id="clip3_165_53">
<rect width="159.474" height="30.2478" fill="white" transform="translate(0.16626)"/>
</clipPath>
<clipPath id="clip4_165_53">
<rect width="30.2478" height="30.2478" fill="white" transform="translate(0.16626)"/>
</clipPath>
<clipPath id="clip5_165_53">
<rect width="124.059" height="21.887" fill="white" transform="translate(35.4141 4.18042)"/>
</clipPath>
<clipPath id="clip6_165_53">
<rect width="124.059" height="21.887" fill="white" transform="translate(35.4141 4.18042)"/>
</clipPath>
<clipPath id="clip7_165_53">
<rect width="124.059" height="21.887" fill="white" transform="translate(35.4141 4.18042)"/>
</clipPath>
<clipPath id="clip8_165_53">
<rect width="124.059" height="21.887" fill="white" transform="translate(35.4141 4.18042)"/>
</clipPath>
</defs>
</svg>
