<svg width="240" height="46" viewBox="0 0 240 46" fill="none" xmlns="http://www.w3.org/2000/svg">
<g clip-path="url(#clip0_165_53)">
<g clip-path="url(#clip1_165_53)">
<g clip-path="url(#clip2_165_53)">
<g clip-path="url(#clip3_165_53)">
<g clip-path="url(#clip4_165_53)">
<g clip-path="url(#clip5_165_53)">
<g clip-path="url(#clip6_165_53)">
<g clip-path="url(#clip7_165_53)">
<path d="M17.9477 13.3072H15.0175C14.8708 12.0691 14.277 11.1084 13.236 10.4252C12.1905 9.74192 10.9112 9.40029 9.39791 9.40029C8.29279 9.40029 7.32752 9.57913 6.50211 9.93681C5.67212 10.2945 5.02785 10.7874 4.56929 11.4157C4.11073 12.0393 3.88145 12.7501 3.88145 13.548C3.88145 14.2174 4.04195 14.7906 4.36294 15.2675C4.68393 15.7444 5.09663 16.1388 5.60105 16.4506C6.10546 16.7624 6.6351 17.0192 7.18995 17.221C7.74481 17.4182 8.25381 17.5787 8.71695 17.7025L11.2551 18.3834C11.9062 18.5577 12.633 18.7939 13.4355 19.0919C14.238 19.3946 15.0084 19.805 15.7467 20.3232C16.4803 20.8413 17.0879 21.5016 17.5694 22.3041C18.0509 23.1112 18.2916 24.1017 18.2916 25.2756C18.2916 26.6283 17.9386 27.8481 17.2324 28.9349C16.5308 30.0262 15.5059 30.8952 14.1577 31.5418C12.8096 32.1838 11.1748 32.5048 9.25346 32.5048C7.4605 32.5048 5.91057 32.2159 4.60368 31.6381C3.29679 31.0603 2.27191 30.2532 1.52905 29.2169C0.781599 28.1851 0.359725 26.9837 0.263428 25.6126H3.39309C3.47104 26.5573 3.78974 27.3391 4.34918 27.9581C4.90862 28.5726 5.6171 29.0266 6.4746 29.3201C7.3321 29.6181 8.25839 29.7672 9.25346 29.7672C10.409 29.7672 11.4477 29.5792 12.3694 29.2031C13.2865 28.8225 14.0156 28.2929 14.5567 27.6142C15.0932 26.9356 15.3615 26.14 15.3615 25.2274C15.3615 24.3974 15.1276 23.7211 14.6599 23.1983C14.1967 22.6756 13.5868 22.2514 12.8302 21.9258C12.0736 21.6002 11.2551 21.3159 10.3746 21.0729L7.30001 20.1925C5.34655 19.633 3.79891 18.8305 2.6571 17.785C1.51988 16.7441 0.951265 15.3822 0.951265 13.6993C0.951265 12.2961 1.33187 11.0717 2.09308 10.0262C2.85428 8.98071 3.87916 8.16677 5.16771 7.5844C6.45626 7.00203 7.89842 6.71085 9.49421 6.71085C11.1083 6.71085 12.5413 6.99744 13.7932 7.57064C15.0496 8.14384 16.047 8.92798 16.7853 9.92305C17.519 10.9181 17.9065 12.0462 17.9477 13.3072ZM25.7616 20.7771V32.0645H22.8795V7.05476H25.7616V16.2374H26.0092C26.4494 15.2698 27.1097 14.4972 27.9902 13.9194C28.8752 13.3462 30.0537 13.0596 31.5256 13.0596C32.805 13.0596 33.9262 13.3141 34.8892 13.8231C35.8476 14.3321 36.5927 15.1093 37.1246 16.1549C37.6612 17.2004 37.9294 18.5302 37.9294 20.1443V32.0645H35.0474V20.3369C35.0474 18.8512 34.6622 17.6979 33.8918 16.8771C33.1214 16.0609 32.0576 15.6527 30.7002 15.6527C29.7556 15.6527 28.9096 15.8522 28.1621 16.2512C27.4193 16.6501 26.8323 17.2325 26.4013 17.9983C25.9748 18.7595 25.7616 19.6858 25.7616 20.7771ZM50.8195 32.4566C49.1274 32.4566 47.644 32.0531 46.3692 31.246C45.0944 30.4389 44.1016 29.3109 43.3908 27.8618C42.6801 26.4128 42.3247 24.7207 42.3247 22.7856C42.3247 20.8276 42.6801 19.1217 43.3908 17.6681C44.1016 16.2099 45.0944 15.0772 46.3692 14.2702C47.644 13.4631 49.1274 13.0596 50.8195 13.0596C52.5162 13.0596 54.0019 13.4631 55.2767 14.2702C56.5515 15.0772 57.5442 16.2099 58.255 17.6681C58.9658 19.1217 59.3212 20.8276 59.3212 22.7856C59.3212 24.7207 58.9658 26.4128 58.255 27.8618C57.5442 29.3109 56.5515 30.4389 55.2767 31.246C54.0019 32.0531 52.5162 32.4566 50.8195 32.4566ZM50.8195 29.8635C52.108 29.8635 53.1673 29.5356 53.9973 28.8798C54.8273 28.2195 55.4418 27.3506 55.8407 26.2729C56.2396 25.1999 56.4391 24.0375 56.4391 22.7856C56.4391 21.5292 56.2396 20.3598 55.8407 19.2776C55.4418 18.1954 54.8273 17.3196 53.9973 16.6501C53.1673 15.9852 52.108 15.6527 50.8195 15.6527C49.5355 15.6527 48.4786 15.9852 47.6486 16.6501C46.8186 17.3196 46.2041 18.1954 45.8052 19.2776C45.4062 20.3598 45.2067 21.5292 45.2067 22.7856C45.2067 24.0375 45.4062 25.1999 45.8052 26.2729C46.2041 27.3506 46.8186 28.2195 47.6486 28.8798C48.4786 29.5356 49.5355 29.8635 50.8195 29.8635ZM66.5985 39.1011H63.7164V13.3072H66.5022V16.2855H66.8461C67.057 15.96 67.3505 15.5427 67.7265 15.0337C68.1071 14.5247 68.6528 14.0684 69.3636 13.6649C70.0789 13.2614 71.0465 13.0596 72.2663 13.0596C73.8483 13.0596 75.24 13.4539 76.4414 14.2427C77.6474 15.036 78.5875 16.1571 79.2616 17.6062C79.9402 19.0552 80.2796 20.7634 80.2796 22.7306C80.2796 24.7207 79.9402 26.4426 79.2616 27.8962C78.5875 29.3499 77.652 30.4733 76.4552 31.2666C75.2584 32.06 73.8781 32.4566 72.3144 32.4566C71.1084 32.4566 70.1431 32.2548 69.4186 31.8513C68.6941 31.4478 68.1369 30.9869 67.7472 30.4688C67.3574 29.9552 67.057 29.5264 66.8461 29.1825H66.5985V39.1011ZM66.5503 22.6824C66.5503 24.0994 66.759 25.349 67.1763 26.4311C67.589 27.5088 68.1943 28.3502 68.9922 28.9555C69.7901 29.5608 70.7668 29.8635 71.9223 29.8635C73.1284 29.8635 74.1372 29.5448 74.9488 28.9074C75.7559 28.27 76.3658 27.4079 76.7785 26.3211C77.1912 25.2343 77.3975 24.0214 77.3975 22.6824C77.3975 21.3664 77.1958 20.1764 76.7922 19.1126C76.3887 18.0487 75.7811 17.205 74.9695 16.5813C74.1624 15.9623 73.1467 15.6527 71.9223 15.6527C70.753 15.6527 69.7694 15.9462 68.9715 16.5332C68.1736 17.1247 67.5706 17.9478 67.1625 19.0025C66.7544 20.0572 66.5503 21.2838 66.5503 22.6824ZM88.0934 32.0645H85.0669V7.05476H100.062V9.73733H88.0934V18.1909H98.9406V20.8803H88.0934V32.0645ZM116.673 24.3951V13.3072H119.555V32.0645H116.673V28.8867H116.474C116.033 29.8405 115.35 30.6499 114.424 31.3148C113.493 31.9797 112.319 32.3122 110.902 32.3122C109.733 32.3122 108.692 32.0531 107.779 31.5349C106.867 31.0167 106.149 30.2349 105.626 29.1894C105.108 28.1439 104.849 26.8232 104.849 25.2274V13.3072H107.731V25.028C107.731 26.399 108.116 27.4904 108.887 28.3021C109.653 29.1183 110.634 29.5264 111.831 29.5264C112.551 29.5264 113.282 29.343 114.025 28.9761C114.772 28.6093 115.401 28.0476 115.91 27.2909C116.419 26.5343 116.673 25.5691 116.673 24.3951ZM138.113 17.5099L135.527 18.239C135.362 17.808 135.123 17.3861 134.811 16.9734C134.5 16.5653 134.073 16.2259 133.532 15.9554C132.995 15.6848 132.308 15.5496 131.468 15.5496C130.322 15.5496 129.368 15.8132 128.607 16.3406C127.846 16.8633 127.465 17.5282 127.465 18.3353C127.465 19.0552 127.727 19.6216 128.249 20.0343C128.768 20.4515 129.581 20.7978 130.691 21.0729L133.47 21.7539C135.148 22.162 136.4 22.7833 137.226 23.6179C138.046 24.4525 138.457 25.5255 138.457 26.837C138.457 27.91 138.15 28.8707 137.535 29.719C136.921 30.5673 136.063 31.2345 134.963 31.7206C133.862 32.2113 132.585 32.4566 131.131 32.4566C129.215 32.4566 127.63 32.0416 126.378 31.2116C125.122 30.3816 124.329 29.1687 123.999 27.573L126.729 26.8851C126.991 27.8939 127.486 28.6506 128.215 29.155C128.944 29.6594 129.898 29.9116 131.076 29.9116C132.42 29.9116 133.491 29.625 134.289 29.0518C135.082 28.4786 135.479 27.7885 135.479 26.9814C135.479 26.3303 135.249 25.7846 134.791 25.3444C134.337 24.8996 133.637 24.5671 132.693 24.347L129.563 23.611C127.848 23.2075 126.589 22.5747 125.787 21.7126C124.984 20.8551 124.583 19.7798 124.583 18.4866C124.583 17.4274 124.881 16.4896 125.477 15.6734C126.078 14.8617 126.897 14.222 127.933 13.7543C128.974 13.2912 130.152 13.0596 131.468 13.0596C133.326 13.0596 134.786 13.4677 135.85 14.2839C136.914 15.0956 137.668 16.1709 138.113 17.5099ZM145.686 32.0645H142.804V13.3072H145.686V32.0645ZM144.269 10.1775C143.705 10.1775 143.221 9.98724 142.818 9.60664C142.419 9.22145 142.219 8.7606 142.219 8.22409C142.219 7.68758 142.419 7.22673 142.818 6.84154C143.221 6.46093 143.705 6.27063 144.269 6.27063C144.829 6.27063 145.31 6.46093 145.714 6.84154C146.117 7.22673 146.319 7.68758 146.319 8.22409C146.319 8.7606 146.117 9.22145 145.714 9.60664C145.31 9.98724 144.829 10.1775 144.269 10.1775ZM158.583 32.4566C156.886 32.4566 155.401 32.0531 154.126 31.246C152.851 30.4389 151.858 29.3109 151.147 27.8618C150.437 26.4128 150.081 24.7207 150.081 22.7856C150.081 20.8276 150.437 19.1217 151.147 17.6681C151.858 16.2099 152.851 15.0772 154.126 14.2702C155.401 13.4631 156.886 13.0596 158.583 13.0596C160.275 13.0596 161.759 13.4631 163.033 14.2702C164.308 15.0772 165.301 16.2099 166.012 17.6681C166.722 19.1217 167.078 20.8276 167.078 22.7856C167.078 24.7207 166.722 26.4128 166.012 27.8618C165.301 29.3109 164.308 30.4389 163.033 31.246C161.759 32.0531 160.275 32.4566 158.583 32.4566ZM158.583 29.8635C159.867 29.8635 160.924 29.5356 161.754 28.8798C162.584 28.2195 163.198 27.3506 163.597 26.2729C163.996 25.1999 164.196 24.0375 164.196 22.7856C164.196 21.5292 163.996 20.3598 163.597 19.2776C163.198 18.1954 162.584 17.3196 161.754 16.6501C160.924 15.9852 159.867 15.6527 158.583 15.6527C157.294 15.6527 156.235 15.9852 155.405 16.6501C154.575 17.3196 153.961 18.1954 153.562 19.2776C153.163 20.3598 152.963 21.5292 152.963 22.7856C152.963 24.0375 153.163 25.1999 153.562 26.2729C153.961 27.3506 154.575 28.2195 155.405 28.8798C156.235 29.5356 157.294 29.8635 158.583 29.8635ZM174.355 20.7771V32.0645H171.473V13.3072H174.259V16.2374H174.506C174.947 15.2836 175.614 14.5155 176.508 13.9331C177.402 13.3508 178.558 13.0596 179.975 13.0596C181.245 13.0596 182.357 13.3187 183.311 13.8368C184.265 14.355 185.005 15.1369 185.532 16.1824C186.06 17.2279 186.323 18.5485 186.323 20.1443V32.0645H183.441V20.3369C183.441 18.8649 183.059 17.7162 182.293 16.8908C181.532 16.0654 180.481 15.6527 179.142 15.6527C178.225 15.6527 177.407 15.8522 176.687 16.2512C175.962 16.6501 175.394 17.2325 174.981 17.9983C174.564 18.7595 174.355 19.6858 174.355 20.7771Z" fill="#89939E"/>
</g>
</g>
</g>
</g>
<g clip-path="url(#clip8_165_53)">
<path d="M206.49 0H194.088V45.3717H206.49V0Z" fill="#DEDEDE"/>
<path d="M221.614 0H209.212V45.3717H221.614V0Z" fill="#DEDEDE" fill-opacity="0.75"/>
<path d="M236.737 0H224.336V45.3717H236.737V0Z" fill="#DEDEDE" fill-opacity="0.5"/>
</g>
</g>
</g>
</g>
</g>
<defs>
<clipPath id="clip0_165_53">
<rect width="240" height="45.36" fill="white"/>
</clipPath>
<clipPath id="clip1_165_53">
<rect width="240" height="45.36" fill="white" transform="translate(-0.145508 0.00585938)"/>
</clipPath>
<clipPath id="clip2_165_53">
<rect width="239.21" height="45.3717" fill="white" transform="translate(0.249268)"/>
</clipPath>
<clipPath id="clip3_165_53">
<rect width="239.21" height="45.3717" fill="white" transform="translate(0.249268)"/>
</clipPath>
<clipPath id="clip4_165_53">
<rect width="186.088" height="32.8305" fill="white" transform="translate(0.249268 6.27063)"/>
</clipPath>
<clipPath id="clip5_165_53">
<rect width="186.088" height="32.8305" fill="white" transform="translate(0.249268 6.27063)"/>
</clipPath>
<clipPath id="clip6_165_53">
<rect width="186.088" height="32.8305" fill="white" transform="translate(0.249268 6.27063)"/>
</clipPath>
<clipPath id="clip7_165_53">
<rect width="186.088" height="32.8305" fill="white" transform="translate(0.249268 6.27063)"/>
</clipPath>
<clipPath id="clip8_165_53">
<rect width="45.3717" height="45.3717" fill="white" transform="translate(194.088)"/>
</clipPath>
</defs>
</svg>
