<svg width="160" height="31" viewBox="0 0 160 31" fill="none" xmlns="http://www.w3.org/2000/svg">
<g clip-path="url(#clip0_173_25)">
<g clip-path="url(#clip1_173_25)">
<g clip-path="url(#clip2_173_25)">
<g clip-path="url(#clip3_173_25)">
<g clip-path="url(#clip4_173_25)">
<path d="M8.51743 0H0.249695V30.2478H8.51743V0Z" fill="#DEDEDE"/>
<path d="M18.6 0H10.3323V30.2478H18.6V0Z" fill="#DEDEDE" fill-opacity="0.75"/>
<path d="M28.6826 0H20.4149V30.2478H28.6826V0Z" fill="#DEDEDE" fill-opacity="0.5"/>
</g>
<g clip-path="url(#clip5_173_25)">
<g clip-path="url(#clip6_173_25)">
<g clip-path="url(#clip7_173_25)">
<g clip-path="url(#clip8_173_25)">
<path d="M47.2965 8.87147H45.343C45.2452 8.04607 44.8493 7.40561 44.1553 6.95011C43.4583 6.49461 42.6054 6.26686 41.5966 6.26686C40.8598 6.26686 40.2163 6.38609 39.6661 6.62454C39.1127 6.86299 38.6832 7.19162 38.3775 7.61044C38.0718 8.0262 37.9189 8.50004 37.9189 9.03197C37.9189 9.4783 38.0259 9.86043 38.2399 10.1784C38.4539 10.4963 38.7291 10.7592 39.0653 10.9671C39.4016 11.175 39.7547 11.3462 40.1246 11.4807C40.4945 11.6121 40.8338 11.7191 41.1426 11.8017L42.8347 12.2556C43.2688 12.3718 43.7533 12.5292 44.2883 12.7279C44.8233 12.9297 45.3369 13.2033 45.8291 13.5488C46.3182 13.8942 46.7233 14.3344 47.0443 14.8694C47.3652 15.4075 47.5257 16.0678 47.5257 16.8504C47.5257 17.7522 47.2903 18.5654 46.8196 19.2899C46.3518 20.0175 45.6686 20.5968 44.7698 21.0279C43.871 21.4558 42.7812 21.6698 41.5003 21.6698C40.305 21.6698 39.2717 21.4772 38.4004 21.0921C37.5292 20.7069 36.8459 20.1688 36.3507 19.4779C35.8524 18.7901 35.5711 17.9891 35.5069 17.0751H37.5934C37.6453 17.7048 37.8578 18.2261 38.2308 18.6388C38.6037 19.0484 39.076 19.3511 39.6477 19.5467C40.2194 19.7454 40.8369 19.8448 41.5003 19.8448C42.2707 19.8448 42.9631 19.7194 43.5776 19.4688C44.189 19.215 44.675 18.8619 45.0358 18.4095C45.3934 17.957 45.5723 17.4266 45.5723 16.8183C45.5723 16.265 45.4164 15.814 45.1046 15.4655C44.7958 15.117 44.3892 14.8343 43.8848 14.6172C43.3804 14.4002 42.8347 14.2106 42.2477 14.0486L40.198 13.4616C38.8957 13.0887 37.8639 12.5537 37.1027 11.8567C36.3446 11.1627 35.9655 10.2548 35.9655 9.13285C35.9655 8.19739 36.2192 7.38116 36.7267 6.68415C37.2342 5.98714 37.9174 5.44451 38.7764 5.05627C39.6355 4.66802 40.5969 4.4739 41.6608 4.4739C42.7369 4.4739 43.6922 4.66496 44.5268 5.04709C45.3644 5.42923 46.0293 5.95198 46.5215 6.61537C47.0106 7.27875 47.2689 8.03078 47.2965 8.87147ZM52.5057 13.8514V21.3764H50.5843V4.70318H52.5057V10.8249H52.6708C52.9642 10.1799 53.4045 9.66478 53.9914 9.27959C54.5814 8.89746 55.3671 8.70639 56.3484 8.70639C57.2013 8.70639 57.9488 8.87606 58.5908 9.21539C59.2297 9.55472 59.7265 10.0729 60.0811 10.7699C60.4387 11.4669 60.6176 12.3535 60.6176 13.4295V21.3764H58.6962V13.5579C58.6962 12.5675 58.4394 11.7986 57.9258 11.2514C57.4123 10.7072 56.703 10.4352 55.7981 10.4352C55.1684 10.4352 54.6044 10.5681 54.1061 10.8341C53.6108 11.1001 53.2195 11.4883 52.9321 11.9988C52.6478 12.5063 52.5057 13.1238 52.5057 13.8514ZM69.211 21.6377C68.0829 21.6377 67.094 21.3687 66.2441 20.8307C65.3942 20.2926 64.7324 19.5406 64.2585 18.5746C63.7847 17.6085 63.5478 16.4805 63.5478 15.1904C63.5478 13.885 63.7847 12.7478 64.2585 11.7787C64.7324 10.8066 65.3942 10.0515 66.2441 9.51345C67.094 8.97541 68.0829 8.70639 69.211 8.70639C70.3421 8.70639 71.3326 8.97541 72.1824 9.51345C73.0323 10.0515 73.6941 10.8066 74.168 11.7787C74.6418 12.7478 74.8788 13.885 74.8788 15.1904C74.8788 16.4805 74.6418 17.6085 74.168 18.5746C73.6941 19.5406 73.0323 20.2926 72.1824 20.8307C71.3326 21.3687 70.3421 21.6377 69.211 21.6377ZM69.211 19.909C70.07 19.909 70.7762 19.6904 71.3295 19.2532C71.8828 18.813 72.2925 18.2337 72.5584 17.5153C72.8244 16.7999 72.9574 16.025 72.9574 15.1904C72.9574 14.3528 72.8244 13.5732 72.5584 12.8518C72.2925 12.1303 71.8828 11.5464 71.3295 11.1001C70.7762 10.6568 70.07 10.4352 69.211 10.4352C68.355 10.4352 67.6503 10.6568 67.097 11.1001C66.5437 11.5464 66.134 12.1303 65.8681 12.8518C65.6021 13.5732 65.4691 14.3528 65.4691 15.1904C65.4691 16.025 65.6021 16.7999 65.8681 17.5153C66.134 18.2337 66.5437 18.813 67.097 19.2532C67.6503 19.6904 68.355 19.909 69.211 19.909ZM79.7303 26.0674H77.8089V8.87147H79.6661V10.857H79.8954C80.036 10.64 80.2317 10.3618 80.4823 10.0225C80.7361 9.68312 81.0999 9.37894 81.5737 9.10992C82.0506 8.8409 82.6956 8.70639 83.5088 8.70639C84.5635 8.70639 85.4913 8.9693 86.2923 9.49511C87.0963 10.024 87.723 10.7714 88.1724 11.7375C88.6248 12.7035 88.851 13.8422 88.851 15.1537C88.851 16.4805 88.6248 17.6284 88.1724 18.5975C87.723 19.5666 87.0993 20.3156 86.3014 20.8444C85.5035 21.3733 84.5834 21.6377 83.5409 21.6377C82.7369 21.6377 82.0934 21.5032 81.6104 21.2342C81.1274 20.9652 80.7559 20.658 80.4961 20.3125C80.2362 19.9701 80.036 19.6843 79.8954 19.455H79.7303V26.0674ZM79.6982 15.1216C79.6982 16.0663 79.8373 16.8993 80.1155 17.6208C80.3906 18.3392 80.7942 18.9001 81.3261 19.3037C81.858 19.7072 82.5092 19.909 83.2795 19.909C84.0835 19.909 84.7561 19.6965 85.2972 19.2716C85.8352 18.8466 86.2418 18.2719 86.517 17.5474C86.7921 16.8229 86.9297 16.0143 86.9297 15.1216C86.9297 14.2442 86.7952 13.4509 86.5261 12.7417C86.2571 12.0325 85.8521 11.47 85.311 11.0542C84.7729 10.6415 84.0958 10.4352 83.2795 10.4352C82.5 10.4352 81.8443 10.6308 81.3123 11.0221C80.7804 11.4165 80.3784 11.9652 80.1063 12.6683C79.8342 13.3715 79.6982 14.1892 79.6982 15.1216ZM94.0602 21.3764H92.0426V4.70318H102.039V6.49155H94.0602V12.1272H101.292V13.9202H94.0602V21.3764ZM113.113 16.2634V8.87147H115.035V21.3764H113.113V19.2578H112.98C112.687 19.8937 112.231 20.4333 111.614 20.8765C110.993 21.3198 110.211 21.5414 109.266 21.5414C108.486 21.5414 107.793 21.3687 107.184 21.0233C106.576 20.6778 106.097 20.1566 105.749 19.4596C105.403 18.7626 105.231 17.8821 105.231 16.8183V8.87147H107.152V16.6853C107.152 17.5994 107.409 18.3269 107.922 18.868C108.433 19.4122 109.087 19.6843 109.885 19.6843C110.365 19.6843 110.853 19.562 111.348 19.3174C111.846 19.0729 112.265 18.6984 112.604 18.194C112.944 17.6895 113.113 17.046 113.113 16.2634ZM127.407 11.6733L125.682 12.1593C125.572 11.872 125.413 11.5907 125.206 11.3156C124.998 11.0435 124.713 10.8173 124.353 10.6369C123.995 10.4566 123.536 10.3664 122.977 10.3664C122.213 10.3664 121.577 10.5422 121.069 10.8937C120.562 11.2422 120.308 11.6855 120.308 12.2235C120.308 12.7035 120.482 13.081 120.831 13.3562C121.176 13.6344 121.719 13.8652 122.459 14.0486L124.311 14.5026C125.43 14.7746 126.265 15.1889 126.815 15.7453C127.362 16.3016 127.636 17.017 127.636 17.8913C127.636 18.6067 127.431 19.2471 127.021 19.8127C126.612 20.3782 126.04 20.823 125.306 21.1471C124.573 21.4742 123.721 21.6377 122.752 21.6377C121.474 21.6377 120.418 21.3611 119.584 20.8077C118.746 20.2544 118.217 19.4458 117.997 18.382L119.817 17.9234C119.992 18.596 120.322 19.1004 120.808 19.4367C121.294 19.7729 121.93 19.9411 122.716 19.9411C123.611 19.9411 124.325 19.75 124.857 19.3679C125.386 18.9857 125.65 18.5257 125.65 17.9876C125.65 17.5535 125.497 17.1897 125.192 16.8962C124.889 16.5997 124.423 16.3781 123.793 16.2313L121.707 15.7407C120.563 15.4717 119.724 15.0498 119.189 14.4751C118.654 13.9034 118.387 13.1865 118.387 12.3244C118.387 11.6182 118.585 10.9931 118.983 10.4489C119.383 9.90781 119.929 9.48135 120.62 9.16953C121.314 8.86077 122.1 8.70639 122.977 8.70639C124.215 8.70639 125.189 8.97847 125.898 9.52262C126.607 10.0637 127.11 10.7806 127.407 11.6733ZM132.455 21.3764H130.534V8.87147H132.455V21.3764ZM131.511 6.78503C131.135 6.78503 130.812 6.65816 130.543 6.40443C130.277 6.14763 130.144 5.8404 130.144 5.48273C130.144 5.12505 130.277 4.81782 130.543 4.56102C130.812 4.30729 131.135 4.18042 131.511 4.18042C131.884 4.18042 132.205 4.30729 132.474 4.56102C132.743 4.81782 132.877 5.12505 132.877 5.48273C132.877 5.8404 132.743 6.14763 132.474 6.40443C132.205 6.65816 131.884 6.78503 131.511 6.78503ZM141.053 21.6377C139.922 21.6377 138.932 21.3687 138.082 20.8307C137.232 20.2926 136.57 19.5406 136.096 18.5746C135.622 17.6085 135.386 16.4805 135.386 15.1904C135.386 13.885 135.622 12.7478 136.096 11.7787C136.57 10.8066 137.232 10.0515 138.082 9.51345C138.932 8.97541 139.922 8.70639 141.053 8.70639C142.181 8.70639 143.17 8.97541 144.02 9.51345C144.87 10.0515 145.532 10.8066 146.006 11.7787C146.48 12.7478 146.717 13.885 146.717 15.1904C146.717 16.4805 146.48 17.6085 146.006 18.5746C145.532 19.5406 144.87 20.2926 144.02 20.8307C143.17 21.3687 142.181 21.6377 141.053 21.6377ZM141.053 19.909C141.909 19.909 142.614 19.6904 143.167 19.2532C143.721 18.813 144.13 18.2337 144.396 17.5153C144.662 16.7999 144.795 16.025 144.795 15.1904C144.795 14.3528 144.662 13.5732 144.396 12.8518C144.13 12.1303 143.721 11.5464 143.167 11.1001C142.614 10.6568 141.909 10.4352 141.053 10.4352C140.194 10.4352 139.488 10.6568 138.935 11.1001C138.381 11.5464 137.972 12.1303 137.706 12.8518C137.44 13.5732 137.307 14.3528 137.307 15.1904C137.307 16.025 137.44 16.7999 137.706 17.5153C137.972 18.2337 138.381 18.813 138.935 19.2532C139.488 19.6904 140.194 19.909 141.053 19.909ZM151.568 13.8514V21.3764H149.647V8.87147H151.504V10.8249H151.669C151.962 10.1891 152.407 9.67701 153.003 9.28876C153.599 8.90051 154.37 8.70639 155.314 8.70639C156.161 8.70639 156.903 8.87911 157.538 9.22456C158.174 9.57001 158.668 10.0912 159.02 10.7882C159.371 11.4853 159.547 12.3657 159.547 13.4295V21.3764H157.626V13.5579C157.626 12.5766 157.37 11.8108 156.86 11.2606C156.352 10.7103 155.652 10.4352 154.76 10.4352C154.148 10.4352 153.603 10.5681 153.123 10.8341C152.64 11.1001 152.26 11.4883 151.985 11.9988C151.707 12.5063 151.568 13.1238 151.568 13.8514Z" fill="#89939E"/>
</g>
</g>
</g>
</g>
</g>
</g>
</g>
</g>
<defs>
<clipPath id="clip0_173_25">
<rect width="160" height="30.24" fill="white"/>
</clipPath>
<clipPath id="clip1_173_25">
<rect width="160" height="30.24" fill="white" transform="translate(-0.0969696 0.00390625)"/>
</clipPath>
<clipPath id="clip2_173_25">
<rect width="159.474" height="30.2478" fill="white" transform="translate(0.166199)"/>
</clipPath>
<clipPath id="clip3_173_25">
<rect width="159.307" height="30.2478" fill="white" transform="translate(0.249695)"/>
</clipPath>
<clipPath id="clip4_173_25">
<rect width="30.2478" height="30.2478" fill="white" transform="translate(0.249695)"/>
</clipPath>
<clipPath id="clip5_173_25">
<rect width="124.059" height="21.887" fill="white" transform="translate(35.4975 4.18042)"/>
</clipPath>
<clipPath id="clip6_173_25">
<rect width="124.059" height="21.887" fill="white" transform="translate(35.4975 4.18042)"/>
</clipPath>
<clipPath id="clip7_173_25">
<rect width="124.059" height="21.887" fill="white" transform="translate(35.4975 4.18042)"/>
</clipPath>
<clipPath id="clip8_173_25">
<rect width="124.059" height="21.887" fill="white" transform="translate(35.4975 4.18042)"/>
</clipPath>
</defs>
</svg>
